<svg width="65" height="12" viewBox="0 0 65 12" fill="none" xmlns="http://www.w3.org/2000/svg">
<path d="M4.152 9.144C3.544 9.144 2.996 9.024 2.508 8.784C2.028 8.544 1.648 8.196 1.368 7.74C1.096 7.284 0.96 6.736 0.96 6.096C0.96 5.44 1.108 4.884 1.404 4.428C1.7 3.972 2.092 3.624 2.58 3.384C3.076 3.144 3.62 3.024 4.212 3.024C4.692 3.024 5.104 3.108 5.448 3.276C5.8 3.444 6.096 3.644 6.336 3.876L5.844 4.512C5.604 4.304 5.356 4.14 5.1 4.02C4.844 3.9 4.56 3.84 4.248 3.84C3.8 3.84 3.404 3.936 3.06 4.128C2.716 4.312 2.448 4.576 2.256 4.92C2.072 5.256 1.98 5.648 1.98 6.096C1.98 6.536 2.072 6.924 2.256 7.26C2.44 7.596 2.7 7.86 3.036 8.052C3.38 8.236 3.776 8.328 4.224 8.328C4.584 8.328 4.912 8.256 5.208 8.112C5.512 7.968 5.784 7.796 6.024 7.596L6.468 8.232C6.148 8.52 5.788 8.744 5.388 8.904C4.996 9.064 4.584 9.144 4.152 9.144ZM10.7953 9.144C10.2833 9.144 9.80731 9.024 9.36731 8.784C8.93531 8.544 8.58331 8.196 8.31131 7.74C8.04731 7.284 7.91531 6.736 7.91531 6.096C7.91531 5.44 8.04731 4.884 8.31131 4.428C8.58331 3.972 8.93531 3.624 9.36731 3.384C9.80731 3.144 10.2833 3.024 10.7953 3.024C11.3073 3.024 11.7793 3.144 12.2113 3.384C12.6513 3.624 13.0033 3.972 13.2673 4.428C13.5393 4.884 13.6753 5.44 13.6753 6.096C13.6753 6.736 13.5393 7.284 13.2673 7.74C13.0033 8.196 12.6513 8.544 12.2113 8.784C11.7793 9.024 11.3073 9.144 10.7953 9.144ZM10.7953 8.328C11.1713 8.328 11.4993 8.236 11.7793 8.052C12.0593 7.86 12.2753 7.596 12.4273 7.26C12.5793 6.924 12.6553 6.536 12.6553 6.096C12.6553 5.648 12.5793 5.256 12.4273 4.92C12.2753 4.576 12.0593 4.312 11.7793 4.128C11.4993 3.936 11.1713 3.84 10.7953 3.84C10.4193 3.84 10.0913 3.936 9.81131 4.128C9.53931 4.312 9.32331 4.576 9.16331 4.92C9.01131 5.256 8.93531 5.648 8.93531 6.096C8.93531 6.536 9.01131 6.924 9.16331 7.26C9.32331 7.596 9.53931 7.86 9.81131 8.052C10.0913 8.236 10.4193 8.328 10.7953 8.328ZM18.1826 9V3.972H15.4706V3.168H19.1666V9H18.1826ZM18.5666 1.944C18.3426 1.944 18.1546 1.876 18.0026 1.74C17.8506 1.596 17.7746 1.408 17.7746 1.176C17.7746 0.944 17.8506 0.76 18.0026 0.624C18.1546 0.48 18.3426 0.408 18.5666 0.408C18.7906 0.408 18.9786 0.48 19.1306 0.624C19.2826 0.76 19.3586 0.944 19.3586 1.176C19.3586 1.408 19.2826 1.596 19.1306 1.74C18.9786 1.876 18.7906 1.944 18.5666 1.944ZM22.7019 9V3.168H23.5179L23.6019 4.164H23.6499C23.9539 3.836 24.2819 3.564 24.6339 3.348C24.9859 3.132 25.3899 3.024 25.8459 3.024C26.5339 3.024 27.0419 3.224 27.3699 3.624C27.6979 4.024 27.8619 4.608 27.8619 5.376V9H26.8779V5.508C26.8779 4.956 26.7739 4.548 26.5659 4.284C26.3579 4.012 26.0139 3.876 25.5339 3.876C25.1899 3.876 24.8819 3.964 24.6099 4.14C24.3379 4.316 24.0299 4.58 23.6859 4.932V9H22.7019ZM29.8013 5.412V4.668H34.9613V5.412H29.8013ZM39.5286 11.688C38.9606 11.688 38.4766 11.624 38.0766 11.496C37.6766 11.368 37.3686 11.184 37.1526 10.944C36.9446 10.704 36.8406 10.412 36.8406 10.068C36.8406 9.836 36.9206 9.604 37.0806 9.372C37.2486 9.148 37.4886 8.948 37.8006 8.772V8.724C37.6486 8.636 37.5086 8.516 37.3806 8.364C37.2606 8.212 37.2006 8.012 37.2006 7.764C37.2006 7.58 37.2606 7.392 37.3806 7.2C37.5006 7 37.6726 6.824 37.8966 6.672V6.624C37.6966 6.472 37.5246 6.268 37.3806 6.012C37.2446 5.756 37.1766 5.456 37.1766 5.112C37.1766 4.688 37.2806 4.32 37.4886 4.008C37.7046 3.696 37.9846 3.456 38.3286 3.288C38.6806 3.112 39.0606 3.024 39.4686 3.024C39.7966 3.024 40.0846 3.072 40.3326 3.168H42.7446V3.972H41.2326C41.3686 4.108 41.4846 4.28 41.5806 4.488C41.6766 4.696 41.7246 4.916 41.7246 5.148C41.7246 5.564 41.6246 5.924 41.4246 6.228C41.2246 6.524 40.9526 6.752 40.6086 6.912C40.2726 7.072 39.8926 7.152 39.4686 7.152C39.3166 7.152 39.1526 7.136 38.9766 7.104C38.8086 7.064 38.6446 7.008 38.4846 6.936C38.3406 7.024 38.2286 7.124 38.1486 7.236C38.0686 7.348 38.0286 7.472 38.0286 7.608C38.0286 7.832 38.1326 8 38.3406 8.112C38.5566 8.224 38.8566 8.28 39.2406 8.28H40.5486C41.3006 8.28 41.8566 8.384 42.2166 8.592C42.5846 8.8 42.7686 9.152 42.7686 9.648C42.7686 10.008 42.6366 10.344 42.3726 10.656C42.1086 10.968 41.7326 11.216 41.2446 11.4C40.7646 11.592 40.1926 11.688 39.5286 11.688ZM39.4686 6.492C39.7166 6.492 39.9406 6.436 40.1406 6.324C40.3486 6.212 40.5126 6.052 40.6326 5.844C40.7526 5.636 40.8126 5.392 40.8126 5.112C40.8126 4.84 40.7526 4.604 40.6326 4.404C40.5126 4.196 40.3486 4.036 40.1406 3.924C39.9406 3.804 39.7166 3.744 39.4686 3.744C39.2286 3.744 39.0046 3.804 38.7966 3.924C38.5966 4.036 38.4326 4.196 38.3046 4.404C38.1846 4.604 38.1246 4.84 38.1246 5.112C38.1246 5.392 38.1846 5.636 38.3046 5.844C38.4326 6.052 38.5966 6.212 38.7966 6.324C39.0046 6.436 39.2286 6.492 39.4686 6.492ZM39.6006 10.968C40.0566 10.968 40.4486 10.912 40.7766 10.8C41.1046 10.688 41.3566 10.544 41.5326 10.368C41.7086 10.192 41.7966 10.004 41.7966 9.804C41.7966 9.524 41.6846 9.336 41.4606 9.24C41.2446 9.144 40.9126 9.096 40.4646 9.096H39.3246C39.1566 9.096 38.9966 9.088 38.8446 9.072C38.7006 9.056 38.5646 9.032 38.4366 9C38.1646 9.152 37.9726 9.308 37.8606 9.468C37.7486 9.636 37.6926 9.804 37.6926 9.972C37.6926 10.276 37.8526 10.516 38.1726 10.692C38.5006 10.876 38.9766 10.968 39.6006 10.968ZM44.9239 9V3.168H45.7399L45.8239 4.548H45.8599C46.1639 4.076 46.5399 3.704 46.9879 3.432C47.4359 3.16 47.9279 3.024 48.4639 3.024C48.6799 3.024 48.8799 3.044 49.0639 3.084C49.2559 3.116 49.4399 3.176 49.6159 3.264L49.3879 4.116C49.1879 4.044 49.0159 3.992 48.8719 3.96C48.7279 3.928 48.5399 3.912 48.3079 3.912C47.8679 3.912 47.4439 4.04 47.0359 4.296C46.6359 4.544 46.2599 4.972 45.9079 5.58V9H44.9239ZM54.3272 9.144C53.7432 9.144 53.2112 9.024 52.7312 8.784C52.2592 8.544 51.8832 8.196 51.6032 7.74C51.3232 7.276 51.1832 6.72 51.1832 6.072C51.1832 5.44 51.3232 4.896 51.6032 4.44C51.8832 3.984 52.2472 3.636 52.6952 3.396C53.1512 3.148 53.6392 3.024 54.1592 3.024C54.7192 3.024 55.1952 3.14 55.5872 3.372C55.9872 3.596 56.2912 3.912 56.4992 4.32C56.7152 4.728 56.8232 5.208 56.8232 5.76C56.8232 5.872 56.8192 5.98 56.8112 6.084C56.8032 6.188 56.7912 6.28 56.7752 6.36H51.8432V5.592H56.1872L55.9352 5.868C55.9352 5.18 55.7752 4.664 55.4552 4.32C55.1432 3.976 54.7192 3.804 54.1832 3.804C53.8232 3.804 53.4872 3.892 53.1752 4.068C52.8712 4.244 52.6272 4.5 52.4432 4.836C52.2592 5.172 52.1672 5.584 52.1672 6.072C52.1672 6.576 52.2672 6.996 52.4672 7.332C52.6672 7.668 52.9392 7.924 53.2832 8.1C53.6272 8.268 54.0152 8.352 54.4472 8.352C54.7992 8.352 55.1152 8.304 55.3952 8.208C55.6832 8.104 55.9592 7.968 56.2232 7.8L56.5832 8.448C56.2952 8.64 55.9632 8.804 55.5872 8.94C55.2192 9.076 54.7992 9.144 54.3272 9.144ZM58.6785 11.46V3.168H59.4945L59.5785 3.912H59.6145C59.8865 3.656 60.1985 3.444 60.5505 3.276C60.9105 3.108 61.2705 3.024 61.6305 3.024C62.1585 3.024 62.5985 3.148 62.9505 3.396C63.3105 3.636 63.5825 3.98 63.7665 4.428C63.9505 4.868 64.0425 5.392 64.0425 6C64.0425 6.656 63.9185 7.22 63.6705 7.692C63.4225 8.164 63.0985 8.524 62.6985 8.772C62.2985 9.02 61.8625 9.144 61.3905 9.144C61.1265 9.144 60.8345 9.08 60.5145 8.952C60.2025 8.816 59.9145 8.628 59.6505 8.388H59.6145L59.6625 9.492V11.46H58.6785ZM61.2225 8.316C61.5665 8.316 61.8745 8.224 62.1465 8.04C62.4185 7.856 62.6305 7.592 62.7825 7.248C62.9425 6.896 63.0225 6.48 63.0225 6C63.0225 5.576 62.9665 5.204 62.8545 4.884C62.7425 4.556 62.5665 4.304 62.3265 4.128C62.0865 3.944 61.7705 3.852 61.3785 3.852C61.1145 3.852 60.8345 3.924 60.5385 4.068C60.2505 4.204 59.9585 4.424 59.6625 4.728V7.632C59.9425 7.88 60.2225 8.056 60.5025 8.16C60.7905 8.264 61.0305 8.316 61.2225 8.316Z" fill="#eceff4"/>
</svg>
